<svg width="720" height="420" xmlns="http://www.w3.org/2000/svg">
<rect width="100%" height="100%" fill="white"/>
<text x="360.0" y="28.0" font-size="13" text-anchor="middle" fill="#222" font-weight="bold" font-family="Arial,sans-serif">Survival Curve: LoFi vs HiFi Policy in High-Fidelity Environment</text>
<line x1="65.0" y1="55.0" x2="65.0" y2="355.0" stroke="#333" stroke-width="2"/>
<line x1="65.0" y1="355.0" x2="690.0" y2="355.0" stroke="#333" stroke-width="2"/>
<line x1="65.0" y1="355.0" x2="690.0" y2="355.0" stroke="#e0e0e0" stroke-width="1"/>
<text x="57.0" y="359.0" font-size="10" text-anchor="end" fill="#222" font-weight="normal" font-family="Arial,sans-serif">0%</text>
<line x1="65.0" y1="280.0" x2="690.0" y2="280.0" stroke="#e0e0e0" stroke-width="1"/>
<text x="57.0" y="284.0" font-size="10" text-anchor="end" fill="#222" font-weight="normal" font-family="Arial,sans-serif">25%</text>
<line x1="65.0" y1="205.0" x2="690.0" y2="205.0" stroke="#e0e0e0" stroke-width="1"/>
<text x="57.0" y="209.0" font-size="10" text-anchor="end" fill="#222" font-weight="normal" font-family="Arial,sans-serif">50%</text>
<line x1="65.0" y1="130.0" x2="690.0" y2="130.0" stroke="#e0e0e0" stroke-width="1"/>
<text x="57.0" y="134.0" font-size="10" text-anchor="end" fill="#222" font-weight="normal" font-family="Arial,sans-serif">75%</text>
<line x1="65.0" y1="55.0" x2="690.0" y2="55.0" stroke="#e0e0e0" stroke-width="1"/>
<text x="57.0" y="59.0" font-size="10" text-anchor="end" fill="#222" font-weight="normal" font-family="Arial,sans-serif">100%</text>
<line x1="65.0" y1="355.0" x2="65.0" y2="360.0" stroke="#333" stroke-width="1"/>
<text x="65.0" y="373.0" font-size="10" text-anchor="middle" fill="#222" font-weight="normal" font-family="Arial,sans-serif">0</text>
<line x1="221.2" y1="355.0" x2="221.2" y2="360.0" stroke="#333" stroke-width="1"/>
<text x="221.2" y="373.0" font-size="10" text-anchor="middle" fill="#222" font-weight="normal" font-family="Arial,sans-serif">100</text>
<line x1="377.5" y1="355.0" x2="377.5" y2="360.0" stroke="#333" stroke-width="1"/>
<text x="377.5" y="373.0" font-size="10" text-anchor="middle" fill="#222" font-weight="normal" font-family="Arial,sans-serif">200</text>
<line x1="533.8" y1="355.0" x2="533.8" y2="360.0" stroke="#333" stroke-width="1"/>
<text x="533.8" y="373.0" font-size="10" text-anchor="middle" fill="#222" font-weight="normal" font-family="Arial,sans-serif">300</text>
<line x1="690.0" y1="355.0" x2="690.0" y2="360.0" stroke="#333" stroke-width="1"/>
<text x="690.0" y="373.0" font-size="10" text-anchor="middle" fill="#222" font-weight="normal" font-family="Arial,sans-serif">400</text>
<text x="377.5" y="412.0" font-size="12" text-anchor="middle" fill="#222" font-weight="bold" font-family="Arial,sans-serif">Simulation time (s)</text>
<text x="18" y="205.0" font-size="12" text-anchor="middle" fill="#222" font-weight="bold" font-family="Arial,sans-serif" transform="rotate(-90 18 205.0)">Not crashed (%)</text>
<polygon points="65.0,55.0 127.5,100.0 190.0,100.0 252.5,100.0 315.0,100.0 377.5,100.0 440.0,100.0 502.5,100.0 565.0,100.0 627.5,100.0 690.0,100.0 690.0,355.0 627.5,355.0 565.0,355.0 502.5,355.0 440.0,355.0 377.5,355.0 315.0,355.0 252.5,355.0 190.0,355.0 127.5,355.0 65.0,55.0" fill="#2980B9" opacity="0.10"/>
<polyline points="65.0,55.0 127.5,355.0 190.0,355.0 252.5,355.0 315.0,355.0 377.5,355.0 440.0,355.0 502.5,355.0 565.0,355.0 627.5,355.0 690.0,355.0" fill="none" stroke="#E74C3C" stroke-width="3" stroke-linejoin="round"/>
<circle cx="65.0" cy="55.0" r="4" fill="#E74C3C"/>
<circle cx="127.5" cy="355.0" r="4" fill="#E74C3C"/>
<circle cx="190.0" cy="355.0" r="4" fill="#E74C3C"/>
<circle cx="252.5" cy="355.0" r="4" fill="#E74C3C"/>
<circle cx="315.0" cy="355.0" r="4" fill="#E74C3C"/>
<circle cx="377.5" cy="355.0" r="4" fill="#E74C3C"/>
<circle cx="440.0" cy="355.0" r="4" fill="#E74C3C"/>
<circle cx="502.5" cy="355.0" r="4" fill="#E74C3C"/>
<circle cx="565.0" cy="355.0" r="4" fill="#E74C3C"/>
<circle cx="627.5" cy="355.0" r="4" fill="#E74C3C"/>
<circle cx="690.0" cy="355.0" r="4" fill="#E74C3C"/>
<polyline points="65.0,55.0 127.5,100.0 190.0,100.0 252.5,100.0 315.0,100.0 377.5,100.0 440.0,100.0 502.5,100.0 565.0,100.0 627.5,100.0 690.0,100.0" fill="none" stroke="#2980B9" stroke-width="3" stroke-linejoin="round"/>
<circle cx="65.0" cy="55.0" r="4" fill="#2980B9"/>
<circle cx="127.5" cy="100.0" r="4" fill="#2980B9"/>
<circle cx="190.0" cy="100.0" r="4" fill="#2980B9"/>
<circle cx="252.5" cy="100.0" r="4" fill="#2980B9"/>
<circle cx="315.0" cy="100.0" r="4" fill="#2980B9"/>
<circle cx="377.5" cy="100.0" r="4" fill="#2980B9"/>
<circle cx="440.0" cy="100.0" r="4" fill="#2980B9"/>
<circle cx="502.5" cy="100.0" r="4" fill="#2980B9"/>
<circle cx="565.0" cy="100.0" r="4" fill="#2980B9"/>
<circle cx="627.5" cy="100.0" r="4" fill="#2980B9"/>
<circle cx="690.0" cy="100.0" r="4" fill="#2980B9"/>
<line x1="65.0" y1="100.0" x2="690.0" y2="100.0" stroke="#27AE60" stroke-width="1.5" stroke-dasharray="6,4"/>
<text x="80.6" y="94.0" font-size="9" text-anchor="start" fill="#27AE60" font-weight="normal" font-family="Arial,sans-serif">85% never crashed (170/200 survived full 400 s)</text>
<line x1="68.3" y1="355.0" x2="135.3" y2="289.0" stroke="#E74C3C" stroke-width="1.5"/>
<text x="138.4" y="289.0" font-size="9" text-anchor="start" fill="#E74C3C" font-weight="bold" font-family="Arial,sans-serif">LoFi: all crash in 2.1 s</text>
<line x1="690.0" y1="55.0" x2="690.0" y2="355.0" stroke="#aaa" stroke-width="1" stroke-dasharray="4,3"/>
<text x="685.0" y="67.0" font-size="8" text-anchor="end" fill="#888" font-weight="normal" font-family="Arial,sans-serif">episode end</text>
<rect x="450.0" y="62.0" width="14.0" height="14.0" fill="#E74C3C" opacity="1.0"/>
<text x="468.0" y="74.0" font-size="10" text-anchor="start" fill="#222" font-weight="normal" font-family="Arial,sans-serif">LoFi-trained policy (zero-shot → HiFi)</text>
<rect x="450.0" y="84.0" width="14.0" height="14.0" fill="#2980B9" opacity="1.0"/>
<text x="468.0" y="96.0" font-size="10" text-anchor="start" fill="#222" font-weight="normal" font-family="Arial,sans-serif">HiFi-trained policy (in-domain)</text>
</svg>